<?xml version="1.0" encoding="utf-8"?>
<!-- Generator: Adobe Illustrator 22.1.0, SVG Export Plug-In . SVG Version: 6.00 Build 0)  -->
<svg version="1.1" id="图层_1" xmlns="http://www.w3.org/2000/svg" xmlns:xlink="http://www.w3.org/1999/xlink" x="0px" y="0px"
	 viewBox="0 0 702 227" style="enable-background:new 0 0 702 227;" xml:space="preserve">
<style type="text/css">
	.st0{fill:#3C9DEA;}
</style>
<g>
	<g>
		<path class="st0" d="M15.9,18.8c0-4.7,3.8-8.7,8.5-8.7c4.9,0,8.7,4,8.7,8.7v155.1c0,4.9-3.6,8.7-8.5,8.7s-8.7-3.8-8.7-8.7V18.8z"
			/>
		<path class="st0" d="M73.3,18.8c0-5.6,4.5-9.2,10.1-9.2c5.8,0,10.3,3.6,10.3,9.2v2.9c0,5.4-4.5,9.2-10.3,9.2
			c-5.6,0-10.1-3.8-10.1-9.2V18.8z"/>
		<g>
			<g>
				<path class="st0" d="M196.8,48.9c-18.9,0-36,7.9-48.2,20.5V21.7c0-6.7-4.2-12.1-9.4-12.1c-5.2,0-9.4,5.4-9.4,12.1v100.5l0,0
					c3.2,33.9,32.2,60.5,67,60.5c36.9,0,67-30,67-66.9C263.8,78.9,233.8,48.9,196.8,48.9z M196.8,163.5c-26.4,0-47.9-21.4-47.9-47.8
					c0-26.3,21.5-47.8,47.9-47.8c26.4,0,47.9,21.4,47.9,47.8C244.7,142.1,223.2,163.5,196.8,163.5z"/>
			</g>
		</g>
		<path class="st0" d="M432.2,115.8c0,36.9,30.1,66.9,67,66.9c34.8,0,63.7-26.6,67-60.5l0,0V21.7c0-6.7-4.2-12.1-9.4-12.1
			s-9.4,5.4-9.4,12.1v47.7c-12.2-12.6-29.3-20.5-48.2-20.5C462.2,48.9,432.2,78.9,432.2,115.8z M451.3,115.8
			c0-26.3,21.5-47.8,47.9-47.8c26.4,0,47.9,21.4,47.9,47.8c0,26.3-21.5,47.8-47.9,47.8C472.8,163.5,451.3,142.1,451.3,115.8z"/>
		<path class="st0" d="M415.6,115.3c0-36.9-30.1-66.9-67-66.9c-34.8,0-63.7,26.6-67,60.5l0,0v99.5c0,6.7,4.2,12.1,9.4,12.1
			c5.2,0,9.4-5.4,9.4-12.1v-46.7c12.2,12.6,29.3,20.5,48.2,20.5C385.6,182.1,415.6,152.1,415.6,115.3z M396.5,115.3
			c0,26.3-21.5,47.8-47.9,47.8c-26.4,0-47.9-21.4-47.9-47.8c0-26.3,21.5-47.8,47.9-47.8C375,67.5,396.5,88.9,396.5,115.3z"/>
		<g>
			<path class="st0" d="M92.5,174.7c0,4.4-4,7.9-9,7.9l0,0c-5,0-9-3.6-9-7.9V53.3c0-4.4,4-7.9,9-7.9l0,0c5,0,9,3.5,9,7.9V174.7z"/>
		</g>
		<g>
			<path class="st0" d="M33.2,173c0,5.3-4,9.6-9,9.6l0,0c-5,0-9-4.3-9-9.6V19.2c0-5.3,4-9.6,9-9.6l0,0c5,0,9,4.3,9,9.6V173z"/>
		</g>
		<path class="st0" d="M686.3,55.9c-1.7-1.7-3.9-2.5-6.2-2.5c-2.5,0-5,1-7,2.9l-69.5,69.5V20.1c0-5.3-4-9.6-9-9.6c-5,0-9,4.3-9,9.6
			V173c0,5.3,4,9.6,9,9.6c5,0,9-4.3,9-9.6v-21.7l23.3-23.3l40.1,50.3c1.7,2.2,4.1,3.4,6.6,3.7c2.3,0.3,4.6-0.3,6.4-1.8
			c3.9-3.1,4.4-9,1.1-13.1l-41.4-51.9l46.1-46.1C689.7,65.3,689.9,59.4,686.3,55.9z"/>
	</g>
</g>
</svg>
