<?xml version="1.0" encoding="utf-8"?>
<!-- Generator: Adobe Illustrator 16.0.0, SVG Export Plug-In . SVG Version: 6.00 Build 0)  -->
<!DOCTYPE svg PUBLIC "-//W3C//DTD SVG 1.1//EN" "http://www.w3.org/Graphics/SVG/1.1/DTD/svg11.dtd">
<svg version="1.1" id="图层_1" xmlns="http://www.w3.org/2000/svg" xmlns:xlink="http://www.w3.org/1999/xlink" x="0px" y="0px"
	 width="200px" height="60px" viewBox="0 0 200 60" enable-background="new 0 0 200 60" xml:space="preserve">
<g>
	<path fill="#25A647" d="M29.614,40.9c-5.969,0.04-10.854-3.896-11.185-11.222c-0.307-6.817,5.626-11.42,11.336-11.556
		c6.564-0.157,10.487,7.365,10.487,7.365l16.913-6.274c0,0-6.956-18.141-25.779-18.141c-17.595,0-29.735,12.275-29.734,28.916
		c0,14.794,11.457,29.597,29.325,28.916c19.627-0.749,26.349-18.113,26.349-18.113L39.98,35.035
		C39.98,35.035,36.44,40.9,29.614,40.9"/>
	<path fill="none" stroke="#006934" stroke-width="2.0459" stroke-miterlimit="10" d="M29.614,40.9
		c-5.969,0.04-10.854-3.896-11.185-11.222c-0.307-6.817,5.626-11.42,11.336-11.556c6.564-0.157,10.487,7.365,10.487,7.365
		l16.913-6.274c0,0-6.956-18.141-25.779-18.141c-17.595,0-29.735,12.275-29.734,28.916c0,14.794,11.457,29.597,29.325,28.916
		c19.627-0.749,26.349-18.113,26.349-18.113L39.98,35.035C39.98,35.035,36.44,40.9,29.614,40.9"/>
	<path fill="#22A546" d="M70.537,11.076c-0.712,0-1.212-0.144-1.501-0.433c-0.289-0.289-0.434-0.789-0.434-1.501
		c0-0.645,0.145-1.106,0.434-1.384c0.289-0.278,0.789-0.417,1.501-0.417h25.348c0.756,0,1.268,0.139,1.534,0.417
		c0.267,0.278,0.4,0.739,0.4,1.384c0,0.712-0.134,1.212-0.4,1.501c-0.266,0.289-0.778,0.433-1.534,0.433h-3.802v9.005h5.637
		c0.734,0,1.234,0.129,1.501,0.384c0.267,0.256,0.4,0.673,0.4,1.251c0,0.645-0.133,1.129-0.4,1.451s-0.767,0.483-1.501,0.483h-5.637
		V35.39c0,0.757-0.206,1.268-0.617,1.535c-0.412,0.268-0.895,0.4-1.451,0.4c-0.579,0-1.073-0.145-1.484-0.433
		c-0.413-0.29-0.617-0.79-0.617-1.503V23.65h-9.139c-0.112,1.646-0.339,3.108-0.684,4.386c-0.345,1.279-0.817,2.434-1.417,3.468
		c-0.601,1.035-1.33,1.984-2.185,2.852c-0.856,0.868-1.84,1.713-2.952,2.536c-0.646,0.487-1.256,0.71-1.834,0.666
		c-0.579-0.045-1.034-0.345-1.368-0.901c-0.4-0.578-0.522-1.111-0.367-1.6c0.156-0.49,0.522-0.956,1.101-1.401
		c0.889-0.646,1.662-1.278,2.318-1.901c0.656-0.622,1.212-1.317,1.668-2.083c0.455-0.767,0.817-1.635,1.083-2.602
		c0.267-0.968,0.456-2.107,0.567-3.419h-5.503c-0.733,0-1.234-0.161-1.5-0.483c-0.267-0.322-0.401-0.806-0.401-1.451
		c0-0.578,0.134-0.995,0.401-1.251c0.267-0.255,0.767-0.384,1.5-0.384h5.604v-9.005H70.537z M78.875,20.082h9.039v-9.005h-9.039
		V20.082z"/>
	<path fill="#22A546" d="M107.826,20.315c-0.446,0.423-0.912,0.613-1.401,0.567c-0.489-0.044-1.045-0.378-1.668-1
		c-0.289-0.178-0.689-0.478-1.2-0.901c-0.512-0.422-1.034-0.833-1.567-1.234c-0.512-0.467-0.823-0.917-0.935-1.351
		c-0.111-0.434,0.056-0.951,0.501-1.551c0.755-0.956,1.756-0.989,3.002-0.1c0.443,0.356,0.956,0.75,1.534,1.184
		s1.066,0.839,1.467,1.217c0.512,0.489,0.835,0.99,0.968,1.5c0.134,0.512-0.09,1.056-0.668,1.635L107.826,20.315z M108.626,26.286
		c-0.444,1.757-0.917,3.414-1.417,4.969c-0.501,1.556-1.14,3.101-1.919,4.636c-0.312,0.667-0.755,1.091-1.333,1.269
		s-1.123,0.121-1.635-0.167c-0.534-0.313-0.856-0.718-0.967-1.217c-0.111-0.501,0.066-1.174,0.534-2.019
		c0.645-1.201,1.194-2.507,1.65-3.919c0.455-1.411,0.895-2.929,1.316-4.552c0.179-0.778,0.445-1.312,0.802-1.601
		c0.354-0.289,0.877-0.367,1.567-0.234c0.667,0.112,1.128,0.378,1.385,0.801C108.864,24.673,108.87,25.352,108.626,26.286
		 M109.227,12.445c-0.444,0.422-0.905,0.612-1.384,0.566c-0.479-0.044-1.04-0.356-1.686-0.934c-0.444-0.378-0.939-0.789-1.483-1.234
		c-0.545-0.444-0.983-0.8-1.317-1.067c-0.533-0.445-0.851-0.884-0.95-1.317c-0.101-0.434,0.062-0.939,0.482-1.518
		c0.379-0.489,0.829-0.761,1.353-0.817c0.521-0.055,1.071,0.14,1.65,0.584c0.422,0.312,0.783,0.589,1.083,0.833
		c0.301,0.245,0.562,0.467,0.784,0.667c0.222,0.2,0.428,0.384,0.617,0.551c0.188,0.167,0.384,0.338,0.584,0.517
		c0.489,0.489,0.811,0.989,0.967,1.501c0.155,0.511-0.056,1.056-0.634,1.634L109.227,12.445z M119.032,12.377
		c-1.134,0-1.917,0.262-2.352,0.784c-0.433,0.523-0.65,1.362-0.65,2.518v7.405c0,2.179,1.001,3.268,3.002,3.268h3.035v6.337
		c0,0.333-0.072,0.551-0.217,0.65s-0.583,0.038-1.317-0.185c-0.778-0.222-1.317-0.249-1.618-0.082
		c-0.3,0.167-0.539,0.528-0.717,1.083c-0.178,0.646-0.149,1.173,0.083,1.585c0.234,0.411,0.751,0.685,1.552,0.816
		c1.089,0.2,1.985,0.306,2.686,0.317c0.699,0.012,1.261-0.128,1.684-0.416c0.423-0.29,0.718-0.74,0.884-1.352
		c0.167-0.612,0.25-1.417,0.25-2.418v-6.337h3.036c1.134,0,1.934-0.239,2.401-0.717c0.466-0.478,0.7-1.329,0.7-2.551v-7.405
		c0-1.156-0.212-1.995-0.635-2.518c-0.422-0.522-1.189-0.784-2.301-0.784h-3.568c0.089-0.156,0.149-0.261,0.184-0.317
		c0.032-0.055,0.061-0.094,0.083-0.117c0.355-0.822,0.366-1.457,0.032-1.901h5.871c0.689,0,1.155-0.134,1.401-0.401
		c0.243-0.267,0.366-0.7,0.366-1.3c0-0.601-0.111-1.051-0.333-1.351c-0.224-0.3-0.701-0.451-1.435-0.451h-17.377
		c-1.134,0-1.957,0.279-2.469,0.834c-0.512,0.556-0.767,1.457-0.767,2.702v8.604c0,2.001-0.017,3.731-0.05,5.187
		c-0.033,1.457-0.106,2.735-0.218,3.836c-0.11,1.1-0.271,2.073-0.483,2.917c-0.211,0.845-0.483,1.646-0.816,2.401
		c-0.178,0.4-0.322,0.75-0.434,1.052c-0.112,0.3-0.162,0.572-0.15,0.816c0.011,0.245,0.078,0.472,0.2,0.684
		c0.122,0.211,0.328,0.417,0.617,0.617c0.511,0.311,0.988,0.428,1.435,0.35c0.443-0.078,0.855-0.506,1.233-1.283
		c0.445-0.957,0.812-1.985,1.101-3.086c0.289-1.1,0.517-2.318,0.684-3.651c0.167-1.334,0.283-2.796,0.351-4.386
		c0.067-1.589,0.1-3.353,0.1-5.286v-7.972c0-0.356,0.05-0.584,0.15-0.684c0.102-0.1,0.229-0.15,0.383-0.15h7.872
		c-0.045,0.089-0.089,0.172-0.133,0.25c-0.045,0.078-0.089,0.173-0.134,0.284c-0.312,0.645-0.656,1.246-1.034,1.801H119.032z
		 M119.566,29.621c0.288-0.711,0.4-1.272,0.333-1.684c-0.066-0.411-0.4-0.728-1.001-0.951c-0.533-0.244-0.972-0.255-1.317-0.033
		c-0.345,0.222-0.639,0.622-0.884,1.2c-0.223,0.601-0.428,1.123-0.616,1.568c-0.189,0.445-0.384,0.856-0.584,1.234
		c-0.2,0.379-0.429,0.771-0.684,1.184c-0.257,0.411-0.551,0.884-0.885,1.418c-0.4,0.622-0.583,1.15-0.55,1.584
		c0.034,0.434,0.229,0.806,0.584,1.117c0.488,0.378,0.944,0.494,1.367,0.35c0.422-0.145,0.812-0.472,1.168-0.983
		c0.622-1,1.194-2.001,1.718-3.001C118.737,31.623,119.188,30.621,119.566,29.621 M128.004,17.747h-8.471v-1.601
		c0-0.245,0.038-0.395,0.116-0.451c0.078-0.055,0.194-0.083,0.35-0.083h7.506c0.333,0,0.499,0.178,0.499,0.534V17.747z
		 M128.004,22.517c0,0.423-0.166,0.634-0.499,0.634h-7.506c-0.311,0-0.466-0.21-0.466-0.634v-1.634h8.471V22.517z M132.273,32.956
		c-0.289-0.533-0.55-1.006-0.783-1.418c-0.233-0.41-0.467-0.811-0.701-1.2c-0.232-0.388-0.483-0.783-0.75-1.184
		c-0.268-0.4-0.579-0.856-0.935-1.368c-0.399-0.534-0.827-0.817-1.283-0.85c-0.456-0.034-0.852,0.127-1.185,0.483
		c-0.223,0.222-0.367,0.45-0.434,0.683c-0.066,0.233-0.088,0.467-0.066,0.701c0.021,0.233,0.083,0.456,0.184,0.667
		c0.1,0.212,0.217,0.406,0.351,0.584c0.267,0.378,0.517,0.739,0.75,1.083c0.233,0.346,0.461,0.706,0.683,1.085
		c0.223,0.377,0.451,0.778,0.685,1.2s0.495,0.89,0.784,1.4c0.334,0.646,0.661,1.046,0.984,1.201c0.321,0.155,0.738,0.111,1.25-0.134
		c0.578-0.267,0.89-0.656,0.934-1.166C132.784,34.211,132.629,33.623,132.273,32.956"/>
	<path fill="#22A546" d="M148.149,7.041c0-0.734,0.155-1.234,0.467-1.5c0.312-0.267,0.835-0.401,1.567-0.401
		c0.689,0,1.201,0.134,1.534,0.401c0.334,0.267,0.501,0.767,0.501,1.5v4.203h8.205c0.822,0,1.483,0.039,1.984,0.117
		c0.5,0.078,0.889,0.25,1.167,0.517c0.278,0.267,0.467,0.646,0.567,1.134c0.101,0.489,0.15,1.133,0.15,1.934v10.106
		c0,0.733-0.045,1.339-0.134,1.817c-0.09,0.479-0.272,0.851-0.551,1.118c-0.277,0.268-0.667,0.456-1.166,0.567
		c-0.501,0.112-1.163,0.167-1.985,0.167h-8.238v6.871c0,0.578-0.145,1.039-0.434,1.385c-0.289,0.345-0.822,0.517-1.602,0.517
		c-0.866,0-1.422-0.146-1.667-0.434c-0.245-0.289-0.367-0.79-0.367-1.502V28.72h-8.037c-0.802,0-1.452-0.055-1.952-0.167
		c-0.501-0.111-0.89-0.306-1.167-0.583c-0.278-0.278-0.462-0.656-0.55-1.134c-0.09-0.478-0.135-1.073-0.135-1.784v-10.14
		c0-0.755,0.045-1.373,0.135-1.851c0.088-0.478,0.271-0.851,0.55-1.117c0.277-0.267,0.666-0.451,1.167-0.551
		c0.5-0.1,1.15-0.149,1.952-0.149h8.037V7.041z M141.112,15.212c-0.334,0-0.545,0.056-0.634,0.167
		c-0.09,0.111-0.134,0.39-0.134,0.834v7.371c0,0.533,0.05,0.861,0.15,0.984c0.101,0.122,0.339,0.183,0.717,0.183h6.938v-9.539
		H141.112z M152.219,15.212v9.539h7.104c0.443,0,0.711-0.067,0.8-0.2s0.134-0.456,0.134-0.967v-7.371
		c0-0.423-0.072-0.695-0.216-0.817c-0.146-0.123-0.474-0.184-0.984-0.184H152.219z"/>
	<path fill="#22A546" d="M198.347,32.656c0,1.267-0.257,2.19-0.768,2.768c-0.512,0.578-1.435,0.867-2.769,0.867h-22.613
		c-1.334,0-2.24-0.289-2.718-0.867c-0.479-0.577-0.717-1.501-0.717-2.768V10.043c0-1.268,0.221-2.18,0.667-2.735
		c0.444-0.555,1.333-0.834,2.668-0.834h22.713c1.334,0,2.257,0.279,2.769,0.834c0.511,0.556,0.768,1.467,0.768,2.735V32.656z
		 M173.231,10.109c-0.289,0-0.501,0.067-0.633,0.2c-0.135,0.133-0.201,0.389-0.201,0.767v20.245c0,0.912,0.389,1.368,1.168,1.368
		h20.245c0.289,0,0.511-0.122,0.667-0.367c0.155-0.244,0.234-0.578,0.234-1.001V11.043c0-0.311-0.09-0.544-0.269-0.7
		c-0.178-0.155-0.499-0.233-0.967-0.233H173.231z M175.866,15.88c-0.778,0-1.3-0.123-1.568-0.367
		c-0.267-0.245-0.399-0.7-0.399-1.368c0-0.711,0.133-1.178,0.399-1.401c0.269-0.222,0.79-0.333,1.568-0.333h15.275
		c0.8,0,1.335,0.116,1.602,0.35c0.267,0.233,0.399,0.706,0.399,1.417c0,0.667-0.133,1.117-0.399,1.351
		c-0.267,0.233-0.802,0.351-1.602,0.351h-6.369v3.101h5.202c0.756,0,1.279,0.117,1.568,0.351c0.288,0.233,0.433,0.672,0.433,1.317
		c0,0.646-0.145,1.084-0.433,1.318c-0.289,0.233-0.813,0.35-1.568,0.35h-0.666c0.443,0.49,0.816,0.929,1.116,1.318
		c0.301,0.389,0.662,0.862,1.084,1.417c0.312,0.4,0.461,0.795,0.45,1.184c-0.013,0.39-0.172,0.729-0.483,1.018h0.2
		c0.778,0,1.301,0.139,1.567,0.417c0.268,0.278,0.4,0.74,0.4,1.384c0,0.645-0.133,1.079-0.4,1.301
		c-0.267,0.222-0.789,0.333-1.567,0.333h-16.243c-0.778,0-1.3-0.111-1.567-0.333c-0.267-0.222-0.4-0.656-0.4-1.301
		c0-0.645,0.134-1.106,0.4-1.384c0.268-0.278,0.789-0.417,1.567-0.417h5.637v-4.937h-4.269c-0.802,0-1.335-0.117-1.602-0.35
		c-0.267-0.234-0.4-0.672-0.4-1.318c0-0.645,0.134-1.084,0.4-1.317s0.8-0.351,1.602-0.351h4.269V15.88H175.866z M186.84,24.751
		c-0.445-0.512-0.657-0.967-0.634-1.367c0.021-0.401,0.178-0.756,0.467-1.068h-1.9v4.937h4.202
		c-0.067-0.066-0.134-0.133-0.201-0.201c-0.065-0.066-0.133-0.144-0.199-0.233c-0.2-0.245-0.362-0.438-0.484-0.584
		c-0.122-0.145-0.233-0.283-0.333-0.417s-0.217-0.277-0.351-0.434C187.272,25.229,187.084,25.019,186.84,24.751"/>
	<path d="M67.55,49.779c0-1.848,0.688-3.216,2.064-4.105c1.149-0.738,2.55-1.108,4.204-1.108c1.837,0,3.339,0.449,4.506,1.349
		c1.167,0.898,1.75,2.14,1.75,3.724c0,1.284-0.258,2.293-0.773,3.029c-0.516,0.736-1.268,1.309-2.253,1.714
		c-0.986,0.408-2.063,0.611-3.229,0.611c-1.872,0-3.384-0.447-4.537-1.344C68.126,52.754,67.55,51.464,67.55,49.779 M69.878,49.779
		c0,1.277,0.374,2.233,1.12,2.869s1.687,0.954,2.819,0.954c1.125,0,2.06-0.319,2.807-0.958c0.747-0.64,1.12-1.613,1.12-2.922
		c0-1.233-0.375-2.169-1.126-2.804c-0.75-0.636-1.684-0.954-2.8-0.954c-1.133,0-2.073,0.317-2.819,0.949
		C70.251,47.547,69.878,48.502,69.878,49.779"/>
	<path d="M81.822,51.79l2.24-0.264c0.126,0.67,0.476,1.184,1.051,1.541c0.575,0.356,1.378,0.535,2.411,0.535
		c1.04,0,1.812-0.159,2.316-0.475c0.503-0.316,0.755-0.688,0.755-1.113c0-0.382-0.222-0.683-0.667-0.902
		c-0.311-0.149-1.082-0.341-2.316-0.573c-1.661-0.313-2.813-0.583-3.455-0.812c-0.642-0.229-1.128-0.545-1.46-0.949
		c-0.332-0.403-0.497-0.85-0.497-1.339c0-0.443,0.137-0.855,0.409-1.235c0.272-0.378,0.644-0.692,1.114-0.943
		c0.352-0.193,0.833-0.358,1.441-0.493c0.608-0.135,1.26-0.202,1.957-0.202c1.049,0,1.97,0.112,2.763,0.339
		c0.792,0.225,1.378,0.53,1.756,0.916c0.377,0.384,0.638,0.899,0.781,1.544l-2.216,0.227c-0.101-0.514-0.393-0.914-0.875-1.202
		c-0.482-0.288-1.164-0.433-2.045-0.433c-1.041,0-1.783,0.129-2.228,0.386c-0.445,0.256-0.667,0.557-0.667,0.9
		c0,0.22,0.092,0.418,0.277,0.593c0.184,0.181,0.474,0.332,0.868,0.451c0.227,0.062,0.894,0.206,2.001,0.432
		c1.602,0.32,2.72,0.581,3.354,0.784c0.634,0.204,1.131,0.499,1.492,0.888c0.361,0.388,0.542,0.87,0.542,1.446
		c0,0.563-0.22,1.095-0.661,1.593c-0.44,0.497-1.076,0.883-1.906,1.155c-0.831,0.272-1.771,0.408-2.819,0.408
		c-1.737,0-3.061-0.269-3.972-0.809C82.655,53.646,82.074,52.848,81.822,51.79"/>
	<path d="M104.34,51.112l2.227,0.216c-0.243,1.146-0.866,2.044-1.868,2.692c-1.003,0.647-2.234,0.972-3.694,0.972
		c-1.83,0-3.299-0.446-4.412-1.339c-1.111-0.892-1.667-2.171-1.667-3.837c0-1.077,0.239-2.02,0.717-2.827s1.206-1.413,2.184-1.818
		c0.978-0.403,2.041-0.604,3.19-0.604c1.452,0,2.64,0.273,3.563,0.821c0.923,0.549,1.515,1.326,1.775,2.334l-2.203,0.254
		c-0.21-0.67-0.581-1.174-1.114-1.512s-1.177-0.508-1.932-0.508c-1.141,0-2.068,0.305-2.782,0.916
		c-0.713,0.61-1.07,1.576-1.07,2.897c0,1.34,0.344,2.314,1.032,2.922c0.688,0.607,1.586,0.911,2.694,0.911
		c0.889,0,1.631-0.203,2.228-0.61C103.802,52.586,104.18,51.959,104.34,51.112"/>
	<path d="M108.505,54.768V40.996h2.267v4.941c1.057-0.914,2.391-1.372,4.002-1.372c0.99,0,1.85,0.146,2.58,0.438
		c0.73,0.29,1.252,0.693,1.567,1.206c0.314,0.514,0.472,1.26,0.472,2.236v6.322h-2.266v-6.322c0-0.846-0.246-1.461-0.736-1.847
		c-0.491-0.385-1.186-0.577-2.083-0.577c-0.671,0-1.303,0.131-1.895,0.391c-0.592,0.259-1.013,0.611-1.265,1.057
		c-0.252,0.444-0.377,1.059-0.377,1.84v5.459H108.505z"/>
	<path d="M122.854,40.996h2.266v1.944h-2.266V40.996z M122.854,44.791h2.266v9.977h-2.266V44.791z"/>
	<path d="M128.568,54.768v-9.977h2.039v1.418c0.981-1.094,2.399-1.644,4.254-1.644c0.807,0,1.545,0.108,2.221,0.324
		s1.182,0.5,1.518,0.851s0.569,0.768,0.704,1.249c0.084,0.313,0.126,0.86,0.126,1.644v6.135h-2.265v-6.068
		c0-0.689-0.089-1.204-0.265-1.547c-0.176-0.34-0.489-0.612-0.938-0.816c-0.449-0.203-0.976-0.305-1.58-0.305
		c-0.965,0-1.798,0.229-2.498,0.686c-0.701,0.457-1.051,1.324-1.051,2.603v5.448H128.568z"/>
	<path d="M151.626,53.537c-0.839,0.531-1.646,0.907-2.422,1.127c-0.777,0.219-1.61,0.328-2.499,0.328
		c-1.469,0-2.597-0.268-3.386-0.804c-0.789-0.535-1.184-1.219-1.184-2.052c0-0.488,0.149-0.935,0.446-1.339
		c0.299-0.403,0.688-0.728,1.171-0.972s1.026-0.429,1.63-0.554c0.445-0.089,1.117-0.173,2.015-0.254
		c1.829-0.163,3.175-0.357,4.04-0.583c0.008-0.231,0.013-0.379,0.013-0.442c0-0.688-0.214-1.172-0.642-1.454
		c-0.579-0.383-1.44-0.574-2.58-0.574c-1.066,0-1.852,0.141-2.36,0.418c-0.508,0.278-0.883,0.771-1.127,1.479l-2.215-0.225
		c0.202-0.708,0.532-1.28,0.994-1.715c0.461-0.436,1.129-0.771,2.002-1.006c0.872-0.233,1.883-0.352,3.032-0.352
		c1.142,0,2.068,0.101,2.782,0.3c0.713,0.202,1.238,0.453,1.573,0.758c0.336,0.303,0.569,0.687,0.704,1.15
		c0.076,0.288,0.114,0.807,0.114,1.56v2.254c0,1.572,0.048,2.566,0.145,2.982c0.097,0.417,0.287,0.816,0.573,1.198h-2.367
		C151.844,54.416,151.693,54.006,151.626,53.537 M151.438,49.76c-0.822,0.251-2.056,0.464-3.7,0.64
		c-0.933,0.1-1.591,0.212-1.977,0.338s-0.684,0.309-0.894,0.551c-0.209,0.24-0.314,0.508-0.314,0.803
		c0,0.45,0.228,0.825,0.686,1.127c0.457,0.3,1.127,0.45,2.008,0.45c0.872,0,1.648-0.142,2.328-0.428
		c0.68-0.285,1.179-0.674,1.498-1.169c0.243-0.383,0.365-0.945,0.365-1.691V49.76z"/>
	<rect x="157.882" y="52.842" width="2.58" height="1.926"/>
	<path d="M164.401,54.768v-9.977h2.039v1.418c0.981-1.094,2.399-1.644,4.254-1.644c0.806,0,1.546,0.108,2.222,0.324
		c0.675,0.216,1.181,0.5,1.517,0.851s0.57,0.768,0.704,1.249c0.085,0.313,0.127,0.86,0.127,1.644v6.135h-2.267v-6.068
		c0-0.689-0.087-1.204-0.264-1.547c-0.177-0.34-0.488-0.612-0.938-0.816c-0.45-0.203-0.975-0.305-1.58-0.305
		c-0.965,0-1.797,0.229-2.498,0.686s-1.051,1.324-1.051,2.603v5.448H164.401z"/>
	<path d="M187.887,51.555l2.342,0.217c-0.369,1.02-1.053,1.812-2.052,2.376c-0.998,0.563-2.273,0.846-3.826,0.846
		c-1.955,0-3.505-0.45-4.651-1.348c-1.145-0.9-1.718-2.16-1.718-3.782c0-1.678,0.579-2.98,1.737-3.907
		c1.157-0.927,2.66-1.391,4.507-1.391c1.786,0,3.246,0.455,4.379,1.362c1.133,0.908,1.699,2.186,1.699,3.832
		c0,0.101-0.004,0.251-0.012,0.452h-9.969c0.084,1.095,0.499,1.935,1.246,2.517c0.746,0.582,1.678,0.874,2.795,0.874
		c0.829,0,1.539-0.163,2.125-0.489C187.078,52.788,187.543,52.269,187.887,51.555 M180.449,48.821h7.463
		c-0.101-0.84-0.386-1.468-0.855-1.889c-0.722-0.65-1.657-0.977-2.807-0.977c-1.04,0-1.915,0.259-2.624,0.779
		S180.524,47.951,180.449,48.821"/>
	<path d="M198.02,53.255l0.327,1.493c-0.639,0.101-1.208,0.15-1.711,0.15c-0.823,0-1.461-0.097-1.914-0.291
		c-0.453-0.193-0.771-0.449-0.957-0.766c-0.185-0.315-0.275-0.981-0.275-1.996v-5.739h-1.663v-1.315h1.663v-2.47l2.253-1.015v3.484
		h2.277v1.315h-2.277v5.833c0,0.482,0.038,0.792,0.118,0.93c0.081,0.138,0.21,0.248,0.391,0.329
		c0.181,0.082,0.438,0.122,0.774,0.122C197.276,53.32,197.607,53.299,198.02,53.255"/>
</g>
</svg>
