<?xml version="1.0" encoding="utf-8"?>
<!-- Generator: Adobe Illustrator 22.0.0, SVG Export Plug-In . SVG Version: 6.00 Build 0)  -->
<svg version="1.1" id="图层_1" xmlns="http://www.w3.org/2000/svg" xmlns:xlink="http://www.w3.org/1999/xlink" x="0px" y="0px"
	 viewBox="0 0 729 143" style="enable-background:new 0 0 729 143;" xml:space="preserve">
<style type="text/css">
	.st0{fill:#CA201D;}
</style>
<g>
	<path class="st0" d="M154.7,25.9c-24.6,0-43.8,18.4-43.8,41.9c0,23.9,18.7,41.9,43.5,41.9c24.6,0,43.8-18.4,43.8-41.9
		C198.2,43.9,179.5,25.9,154.7,25.9 M181.3,68.1c0,16.1-11.2,27.7-26.6,27.7c-15.1,0-26.9-12.3-26.9-28c0-16.3,11.2-28.1,26.6-28.1
		c15.1,0,26.9,12.3,26.9,28.1V68.1z"/>
	<rect x="219.5" y="4.7" class="st0" width="17.3" height="102.1"/>
	<path class="st0" d="M301.8,25.9c-24.6,0-43.8,18.4-43.8,41.9c0,23.9,18.7,41.9,43.5,41.9c12.4,0,21.5-7.1,24.8-10.1l2.2-2v9.4
		h16.8V67.4C345.3,43.7,326.6,25.9,301.8,25.9 M301.8,95.8c-15.1,0-26.9-12.3-26.9-28c0-16.3,11.2-28.1,26.6-28.1
		c15.1,0,26.9,12.3,26.9,28.1C328.4,84,317.3,95.8,301.8,95.8"/>
	<path class="st0" d="M23.1,97.5l2.2,2c3.3,3,12.4,10.1,24.9,10.1c24.8,0,43.5-18,43.5-41.9c0-23.5-19.2-41.9-43.8-41.9
		C25,25.9,6.3,43.7,6.3,67.4v70.9h16.8L23.1,97.5L23.1,97.5z M50.2,39.7c15.4,0,26.6,11.8,26.6,28.1c0,15.7-11.8,28-26.9,28
		c-15.4,0-26.6-11.8-26.6-28C23.3,52,35.1,39.7,50.2,39.7"/>
	<path class="st0" d="M443.4,97.5l2.2,2c3.3,3,12.4,10.1,24.9,10.1c24.8,0,43.5-18,43.5-41.9c0-23.5-19.2-41.9-43.8-41.9
		c-24.8,0-43.5,17.9-43.5,41.5v70.9h16.8L443.4,97.5L443.4,97.5z M470.5,39.7c15.4,0,26.6,11.8,26.6,28.1c0,15.7-11.8,28-26.9,28
		c-15.4,0-26.6-11.8-26.6-28C443.6,52,455.4,39.7,470.5,39.7"/>
	<path class="st0" d="M652.1,97.5l2.2,2c3.3,3,12.4,10.1,24.9,10.1c24.8,0,43.5-18,43.5-41.9c0-23.5-19.2-41.9-43.8-41.9
		c-24.8,0-43.5,17.9-43.5,41.5v70.9h16.8L652.1,97.5L652.1,97.5z M679.2,39.7c15.4,0,26.6,11.8,26.6,28.1c0,15.7-11.8,28-26.9,28
		c-15.4,0-26.6-11.8-26.6-28C652.3,52,664.1,39.7,679.2,39.7"/>
	<path class="st0" d="M574.6,25.9c-10.1,0-19.3,3.1-26.6,8.4V4.7h-17.3v102.1H548h0V67.6c0-16.2,11-27.9,26.2-27.9
		c15.1,0,26.6,12,26.6,27.9v39.2h17.2V67.6C618.1,44.2,599,25.9,574.6,25.9z"/>
	<path class="st0" d="M367.1,106.8h17.3V67.4c0-15.8,10-27,24.6-27.7V25.9c-23.9,0.6-41.8,18.3-41.8,41.5V106.8z"/>
</g>
</svg>
