<?xml version="1.0" encoding="utf-8"?>
<!-- Generator: Adobe Illustrator 22.1.0, SVG Export Plug-In . SVG Version: 6.00 Build 0)  -->
<svg version="1.1" id="图层_1" xmlns="http://www.w3.org/2000/svg" xmlns:xlink="http://www.w3.org/1999/xlink" x="0px" y="0px"
	 viewBox="0 0 542 134" style="enable-background:new 0 0 542 134;" xml:space="preserve">
<style type="text/css">
	.st0{stroke:#1C1313;stroke-width:0.1;stroke-miterlimit:10;}
	.st1{fill:#C74845;}
</style>
<g>
	<g id="XMLID_50_">
		<path id="XMLID_84_" d="M25.1,112.7c0.5-0.4,0.9-0.9,1.2-1.4c0.6-0.9,0.9-2,0.9-3.1c0-2-0.7-3.5-2.2-4.6c-1.4-1-3.4-1.6-6-1.6
			h-5.3l0,23.6h7.2c2.4,0,4.4-0.7,5.9-2c1.6-1.3,2.4-3.1,2.4-5.1c0-1.5-0.5-2.9-1.4-4C27.1,113.8,26.2,113.2,25.1,112.7z
			 M17.5,105.7h2c3.9,0,3.9,1.8,3.9,2.5c0,1.1-0.4,1.8-1.1,2.3c-0.9,0.5-2.3,0.8-4.2,0.8h-0.6V105.7z M24.7,120.4L24.7,120.4
			c-0.4,0.6-1,1-1.6,1.2c-0.7,0.3-1.8,0.4-3.4,0.4h-2.2l0-7.1h0.6c2.5,0,3.6,0.2,4.1,0.3c0.7,0.2,1.3,0.5,1.7,0.8
			c0.5,0.3,0.8,0.7,1,1.2c0.2,0.4,0.3,0.9,0.3,1.5C25.3,119.4,25.1,119.9,24.7,120.4z"/>
		<path id="XMLID_83_" d="M45.5,116.2c0,2-0.1,2.9-0.3,3.4c-0.2,0.6-0.4,1.1-0.8,1.6c-0.4,0.5-0.9,0.9-1.5,1.1
			c-1.2,0.5-3,0.6-4.4-0.1c-0.7-0.3-1.2-0.8-1.6-1.3c-0.4-0.6-0.6-1.1-0.7-1.7c-0.1-0.7-0.1-1.7-0.1-3v-14.1h-3.8v14.1
			c0,2.3,0.1,3.9,0.4,4.9c0.3,1,0.8,1.9,1.6,2.7c0.8,0.8,1.7,1.4,2.9,1.9c1.1,0.4,2.4,0.7,3.8,0.7c1.8,0,3.3-0.5,4.6-1.3
			c1.3-0.9,2.3-2,2.8-3.3c0.5-1.3,0.8-3.1,0.8-5.4v-14.1h-3.8V116.2z"/>
		<rect id="XMLID_82_" x="53.2" y="102.1" width="3.8" height="23.6"/>
		<polygon id="XMLID_81_" points="64.7,102.1 60.9,102.1 60.9,125.7 73.7,125.7 73.7,122.1 64.7,122.1 		"/>
		<path id="XMLID_78_" d="M93.2,105.1c-1.2-1.1-2.6-1.9-4.3-2.4c-1.6-0.5-4.1-0.7-7.5-0.7l-5.6,0l0,23.6l8.2,0
			c3.1,0,5.6-0.5,7.3-1.4c1.7-0.9,3.1-2.3,4.1-4.1c1-1.8,1.5-3.8,1.5-5.8c0-2-0.3-3.8-1-5.3C95.4,107.5,94.4,106.2,93.2,105.1z
			 M92.5,117.7L92.5,117.7c-0.4,1-1.1,1.9-2,2.6c-0.9,0.7-1.9,1.2-3,1.4c-1.2,0.3-3.2,0.4-6,0.4h-2l0-16.5h0.9
			c2.7,0,4.8,0.1,6.2,0.4c1.3,0.3,2.5,0.8,3.4,1.5c1,0.7,1.7,1.6,2.2,2.8c0.5,1.1,0.8,2.4,0.8,3.7C93.2,115.5,92.9,116.7,92.5,117.7
			z"/>
		<polygon id="XMLID_77_" points="120.1,102.1 116.2,102.1 116.2,125.7 129,125.7 129,122.1 120.1,122.1 		"/>
		<polygon id="XMLID_76_" points="131.3,125.7 146,125.7 146,122 135.1,122 135.1,114.8 146,114.8 146,111.2 135.1,111.2 
			135.1,105.7 146.1,105.7 146.1,102.1 131.3,102.1 		"/>
		<path id="XMLID_75_" d="M164.1,117.2l7.3,0c-0.4,1.6-1.2,2.8-2.5,3.8c-1.5,1.1-3.4,1.7-5.6,1.7c-2.9,0-5.3-0.9-7.2-2.7
			c-1.9-1.8-2.8-3.8-2.8-6.2c0-1.5,0.4-3,1.3-4.3c0.8-1.3,2-2.4,3.6-3.2c3.1-1.6,6.2-1.5,9.1-0.3c1.5,0.6,2.8,1.5,4.1,2.6l0.5,0.5
			l2.9-2.6l-0.6-0.5c-3.3-3-7-4.4-11-4.4c-4.1,0-7.4,1.2-9.9,3.6c-2.5,2.4-3.8,5.3-3.8,8.7c0,3.3,1.3,6.3,3.8,8.7
			c2.5,2.5,5.9,3.7,10.1,3.7c3.6,0,6.6-1.1,8.9-3.1c2.3-2.1,3.5-5,3.5-8.8l0-0.7l-11.5,0V117.2z"/>
		<polygon id="XMLID_74_" points="177,125.7 191.7,125.7 191.7,122 180.8,122 180.8,114.8 191.7,114.8 191.7,111.2 180.8,111.2 
			180.8,105.7 191.8,105.7 191.8,102 177,102.1 		"/>
		<polygon id="XMLID_73_" points="210.4,102 210.4,117.9 195.9,102 194.4,102 194.4,125.7 198.2,125.7 198.2,110.1 212.6,125.7 
			214.1,125.7 214.1,102 		"/>
		<path id="XMLID_70_" d="M235.7,105.1c-1.2-1.1-2.6-1.9-4.3-2.4c-1.6-0.5-4.1-0.7-7.5-0.7l-5.6,0l0,23.6l8.2,0
			c3.1,0,5.6-0.5,7.3-1.4c1.7-0.9,3.1-2.3,4.1-4.1c1-1.8,1.5-3.8,1.5-5.8c0-2-0.3-3.8-1-5.3C237.8,107.5,236.9,106.2,235.7,105.1z
			 M235,117.7L235,117.7c-0.4,1-1.1,1.9-2,2.6c-0.9,0.7-1.9,1.2-3,1.4c-1.2,0.3-3.2,0.4-6,0.4h-2l0-16.5h0.9c2.7,0,4.8,0.1,6.2,0.4
			c1.3,0.3,2.5,0.8,3.4,1.5c1,0.7,1.7,1.6,2.2,2.8c0.5,1.1,0.8,2.4,0.8,3.7C235.6,115.4,235.4,116.6,235,117.7z"/>
		<path id="XMLID_69_" d="M249.5,111.8L249.5,111.8c-2.3-1.6-3.1-2.4-3.5-2.8c-0.4-0.5-0.6-1-0.6-1.7c0-0.6,0.2-1.1,0.7-1.5
			c0.9-0.8,2.7-0.8,3.7,0c0.6,0.5,1.2,1.1,1.8,1.8l0.4,0.6l3-2.3l-0.4-0.6c-0.9-1.3-1.9-2.2-3-2.9c-1.1-0.7-2.3-1-3.7-1
			c-1.8,0-3.3,0.6-4.5,1.7c-1.2,1.1-1.8,2.5-1.8,4.2c0,0.8,0.2,1.5,0.5,2.3c0.3,0.8,0.8,1.5,1.4,2.1c0.6,0.6,1.8,1.5,3.4,2.7
			c1.6,1.1,2.8,2.1,3.4,2.9c0.6,0.7,0.9,1.4,0.9,2.1c0,0.9-0.3,1.6-1,2.1c-0.7,0.6-1.6,0.9-2.6,0.9c-1.6,0-2.9-1.1-4.2-3.3l-0.4-0.6
			l-3.2,1.8l0.3,0.6c1.8,3.4,4.5,5.1,7.8,5.1c1.9,0,3.6-0.7,5-2c1.5-1.3,2.2-2.9,2.2-4.7c0-1.4-0.5-2.7-1.4-4
			C252.9,114.4,251.5,113.2,249.5,111.8z"/>
		<polygon id="XMLID_68_" points="274.9,125.7 278.7,125.7 278.7,114.8 288,114.8 288,111.1 278.7,111.1 278.7,105.7 288,105.7 
			288,102 274.9,102 		"/>
		<path id="XMLID_65_" d="M309.1,103.1c-4-2.1-9.1-2.1-13,0c-2,1.1-3.6,2.6-4.7,4.5c-1.1,1.9-1.7,4-1.7,6.3c0,2.2,0.6,4.3,1.8,6.2
			c1.2,1.9,2.8,3.4,4.8,4.5c2,1.1,4.2,1.6,6.5,1.6c2.3,0,4.5-0.6,6.5-1.6c2-1.1,3.6-2.6,4.7-4.5c1.1-1.9,1.7-4,1.7-6.2
			c0-2.2-0.6-4.3-1.7-6.2C312.7,105.7,311.1,104.2,309.1,103.1z M309.1,120.1c-1.8,1.7-3.9,2.5-6.5,2.5c-2.6,0-4.7-0.8-6.5-2.6
			c-1.8-1.7-2.7-3.7-2.7-6.2c0-2.5,0.8-4.5,2.6-6.2c1.7-1.7,3.9-2.6,6.5-2.6c2.6,0,4.7,0.8,6.5,2.5c1.8,1.7,2.7,3.7,2.7,6.2
			C311.7,116.4,310.9,118.5,309.1,120.1z"/>
		<path id="XMLID_62_" d="M332.6,113.7L332.6,113.7c1.6-1.2,2.4-2.9,2.4-5c0-1.1-0.2-2-0.7-2.9c-0.4-0.9-1.1-1.6-1.8-2.2
			c-0.8-0.5-1.7-0.9-2.7-1.2c-1-0.2-2.8-0.3-5.5-0.3h-5.4l0,23.6h3.8l0-10.3h0.3l8.4,10.3h4.8l-8.4-10.3
			C329.7,115.2,331.4,114.6,332.6,113.7z M322.7,111.7v-6.1h3.4h0c1.8,0,3.1,0.3,3.9,0.8c0.7,0.5,1.1,1.2,1.1,2.3
			c0,1.1-0.4,1.8-1.1,2.3c-0.8,0.5-2.2,0.8-4,0.8H322.7z"/>
		<polygon id="XMLID_61_" points="352.4,105.6 357.7,105.6 357.7,125.7 361.5,125.7 361.5,105.6 366.7,105.6 366.7,102 352.4,102 		
			"/>
		<polygon id="XMLID_60_" points="382.8,102 382.8,111.3 372.4,111.3 372.4,102 368.5,102 368.5,125.7 372.4,125.7 372.4,114.9 
			382.8,114.9 382.8,125.7 386.6,125.7 386.5,102 		"/>
		<polygon id="XMLID_59_" points="390.8,125.7 405.5,125.7 405.5,122 394.6,122 394.6,114.8 405.5,114.7 405.5,111.1 394.6,111.1 
			394.6,105.7 405.6,105.7 405.6,102 390.8,102 		"/>
		<polygon id="XMLID_58_" points="424.4,125.7 428.2,125.7 428.2,114.8 437.5,114.8 437.5,111.1 428.2,111.1 428.2,105.7 
			437.5,105.7 437.5,102 424.4,102 		"/>
		<path id="XMLID_57_" d="M453.3,116.1c0,2-0.1,2.9-0.2,3.4c-0.2,0.6-0.4,1.1-0.8,1.6c-0.4,0.5-0.9,0.9-1.5,1.1
			c-1.2,0.5-3,0.6-4.4-0.1c-0.7-0.3-1.2-0.8-1.6-1.3c-0.4-0.6-0.6-1.1-0.7-1.7c-0.1-0.7-0.1-1.7-0.1-3V102h-3.8v14.1
			c0,2.3,0.1,3.9,0.4,4.9c0.3,1,0.8,1.9,1.6,2.7c0.8,0.8,1.7,1.4,2.9,1.9c1.1,0.4,2.4,0.6,3.8,0.6c1.8,0,3.3-0.4,4.6-1.3
			c1.3-0.9,2.3-2,2.8-3.3c0.5-1.3,0.8-3.1,0.8-5.4V102h-3.8V116.1z"/>
		<polygon id="XMLID_56_" points="459,105.6 464.3,105.6 464.3,125.6 468.1,125.6 468.1,105.6 473.3,105.6 473.3,102 459,102 		"/>
		<path id="XMLID_55_" d="M488.4,116.1c0,2-0.1,2.9-0.2,3.4c-0.2,0.6-0.4,1.1-0.8,1.6c-0.4,0.5-0.9,0.9-1.5,1.1
			c-1.2,0.5-3,0.6-4.4-0.1c-0.7-0.3-1.2-0.8-1.6-1.3c-0.4-0.6-0.6-1.1-0.7-1.7c-0.1-0.7-0.1-1.7-0.1-3V102h-3.8v14.1
			c0,2.3,0.1,3.9,0.4,4.9c0.3,1,0.8,1.9,1.6,2.7c0.8,0.8,1.7,1.4,2.9,1.9c1.1,0.4,2.4,0.6,3.8,0.6c1.8,0,3.3-0.4,4.6-1.3
			c1.3-0.9,2.3-2,2.8-3.3c0.5-1.3,0.8-3.1,0.8-5.4V102h-3.8V116.1z"/>
		<path id="XMLID_52_" d="M510.2,113.7c1.6-1.2,2.4-2.9,2.4-5c0-1.1-0.2-2-0.7-2.9c-0.4-0.9-1-1.6-1.8-2.2c-0.8-0.5-1.7-0.9-2.7-1.2
			c-1-0.2-2.8-0.3-5.5-0.3h-5.4l0,23.6h3.8l0-10.3h0.3l8.4,10.3h4.8l-8.4-10.3C507.4,115.2,509,114.6,510.2,113.7z M500.4,111.7
			v-6.1h3.4c1.8,0,3.1,0.3,3.9,0.8c0.7,0.5,1.1,1.2,1.1,2.3c0,1.1-0.4,1.8-1.1,2.3c-0.8,0.5-2.2,0.7-4,0.8H500.4z"/>
		<polygon id="XMLID_51_" points="531,105.6 531,102 516.2,102 516.2,125.6 530.9,125.6 530.9,122 520,122 520,114.7 530.9,114.7 
			530.9,111.1 520,111.1 520,105.6 		"/>
	</g>
	<g id="XMLID_34_">
		<path id="XMLID_35_" d="M29.4,7.4h19.4L44,29.1h17.1l4.8-21.6h19.4L69.6,69.7H50.2l4.9-18.4H38l-4.9,18.4H13.7L29.4,7.4z"/>
	</g>
	<g id="XMLID_30_">
		<path id="XMLID_31_" d="M117.3,60H98.1l-6.9,9.6H72.7l38.7-62.2h19.7l5.2,62.2h-18.9L117.3,60z M116.9,43.5l-0.2-20.9l-10,20.9
			H116.9z"/>
	</g>
	<g id="XMLID_27_">
		<path id="XMLID_28_" d="M281.8,7.5h18L311.1,41l8-33.4H337l-15.6,62.1h-17.9l-11.7-28.1l-7.5,28.1h-18L281.8,7.5z"/>
	</g>
	<g id="XMLID_24_">
		<path id="XMLID_25_" d="M483.1,7.4h18L512.4,41l8-33.5h17.9l-15.6,62.2h-17.9L493,41.5l-7.5,28.1h-18L483.1,7.4z"/>
	</g>
	<g id="XMLID_20_">
		<path id="XMLID_21_" d="M333.1,40.5c2.7-9.5,7.9-22.1,14.7-27.4c6.8-5.3,14.6-6.7,24.1-6.7c9.7,0,16.8,1.3,20.6,6.5
			c3.8,5.2,3.9,17.7,1.2,27.1c-2,6.8-4.7,12.4-8.3,16.8c-3.6,4.4-8.7,8.1-13.7,10.5c-5,2.4-10.1,3.4-16.6,3.4
			c-6.6,0-12.4-0.8-16.2-2.9c-3.7-2.1-5.4-5.7-6.8-10.3C330.8,53,331.1,47.3,333.1,40.5z M351.1,40.6c-1.7,5.9-2.2,11.4-0.7,14
			c1.5,2.6,4.4,2.5,8.2,2.5c3.9,0,6.9,0.1,9.7-2.5c2.8-2.5,5.6-8.4,7.4-14.9c1.6-5.5,2-14.6,0.5-17.2c-1.5-2.5-4.5-2.5-8.3-2.5
			c-3.6,0-6.6,0-9.5,2.5C355.5,25.2,352.8,34.6,351.1,40.6z"/>
	</g>
	<g id="XMLID_17_">
		<path id="XMLID_18_" d="M400.5,7.4h17.1l-1.8,31.3l15.7-31.3h18.4l-0.2,31.2l14.1-31.2h17l-28.3,62.2h-17.7l-1.1-31.5l-18,31.5
			h-19L400.5,7.4z"/>
	</g>
	<g id="XMLID_15_">
		<path id="XMLID_16_" class="st0" d="M217.1,69.7"/>
	</g>
	<g id="XMLID_12_">
		<path id="XMLID_13_" d="M180.1,44.3l14.5,5.2c-2.3,4.8-5.1,8.9-8.2,12.1c-3.2,3.2-6.6,5.7-10.5,7.3c-3.8,1.6-8.4,2.5-13.6,2.5
			c-6.4,0-11.3-1-14.8-3c-3.5-2-6.1-5.5-7.7-10.6s-1.4-11.5,0.7-19.4c2.8-10.5,7.5-18.6,14.2-24.2c6.7-5.6,14.7-8.5,24.2-8.5
			c7.4,0,12.8,1.6,16.1,4.9c3.4,3.2,5.2,8.2,5.5,14.9L183,30.8c0-1.9-0.3-3.3-0.6-4.2c-0.6-1.5-1.6-2.7-2.8-3.5
			c-1.3-0.8-2.8-1.2-4.6-1.2c-4.1,0-7.7,1.8-10.9,5.4c-2.4,2.7-3.9,5.4-5.4,11.1c-1.9,7-1.8,10.4-0.5,13c1.3,2.6,3.7,3.9,7.3,3.9
			c3.5,0,6.4-1.1,8.7-3.2C176.4,50,178.2,48.3,180.1,44.3z"/>
	</g>
	<polygon id="XMLID_9_" class="st1" points="224.8,7.2 208.5,7.2 193.4,70.3 209.5,70.3 213.3,56.2 227.4,44.7 234.3,70.3 
		254.3,70.3 239.9,33.5 268.2,7.2 244.1,7.5 218.6,34 	"/>
	<g id="XMLID_7_">
		<polygon id="XMLID_8_" points="274.1,7.3 271.6,9.3 244.8,34.3 258.5,69.3 258.9,70.3 263.3,70.3 248.9,33.5 277.2,7.2 		"/>
	</g>
	<g id="XMLID_5_">
		<polygon id="XMLID_6_" points="225.9,49.3 216.7,56.8 213.3,70.3 217.8,70.3 221.6,55.3 226.5,51.4 		"/>
	</g>
	<g id="XMLID_4_">
		<rect id="XMLID_88_" x="13.7" y="86.8" width="518.4" height="1.5"/>
	</g>
</g>
</svg>
